<svg width="74" height="48" viewBox="0 0 74 48" fill="none" xmlns="http://www.w3.org/2000/svg">
<path d="M6.192 3.992C8.096 3.992 9.56 4.536 10.584 5.624C11.624 6.696 12.144 8.248 12.144 10.28V14.216C12.144 16.168 11.624 17.672 10.584 18.728C9.56 19.768 8.056 20.288 6.072 20.288C4.712 20.288 3.288 20.24 1.8 20.144V4.088C3.24 4.024 4.704 3.992 6.192 3.992ZM6.072 5.72C5.576 5.72 4.832 5.736 3.84 5.768V18.392C4.784 18.488 5.528 18.536 6.072 18.536C7.304 18.536 8.28 18.184 9 17.48C9.736 16.76 10.104 15.728 10.104 14.384V10.136C10.104 8.68 9.752 7.584 9.048 6.848C8.344 6.096 7.352 5.72 6.072 5.72Z" fill="black"/>
<path d="M26.792 16.992C27.384 16.992 28.064 17.048 28.832 17.16C29.6 17.256 30.304 17.368 30.944 17.496L30.896 19.296C29.088 18.944 27.72 18.768 26.792 18.768C25.688 18.768 24.896 18.992 24.416 19.44C23.952 19.872 23.72 20.6 23.72 21.624V28.584C23.72 29.608 23.952 30.352 24.416 30.816C24.896 31.264 25.688 31.488 26.792 31.488C27.512 31.488 28.448 31.376 29.6 31.152V25.848H26.6V23.928H31.64V32.4C29.72 32.992 28.104 33.288 26.792 33.288C24.952 33.288 23.64 32.896 22.856 32.112C22.072 31.328 21.68 30.104 21.68 28.44V21.84C21.68 20.144 22.08 18.912 22.88 18.144C23.68 17.376 24.984 16.992 26.792 16.992Z" fill="black"/>
<line x1="10.5463" y1="33.7899" x2="23.8677" y2="5.01604" stroke="black"/>
<path d="M11.7 46.258C11.7 45.9313 11.784 45.6933 11.952 45.544C12.1293 45.3853 12.3533 45.306 12.624 45.306C12.8947 45.306 13.1187 45.3853 13.296 45.544C13.4733 45.6933 13.562 45.9313 13.562 46.258C13.562 46.5847 13.4733 46.8273 13.296 46.986C13.1187 47.1353 12.8947 47.21 12.624 47.21C12.3533 47.21 12.1293 47.1353 11.952 46.986C11.784 46.8273 11.7 46.5847 11.7 46.258ZM18.0896 47.21C17.2309 47.21 16.5402 46.8833 16.0176 46.23C15.5042 45.5673 15.2476 44.5873 15.2476 43.29C15.2476 42.646 15.3316 42.0813 15.4996 41.596C15.6676 41.1013 15.8962 40.6907 16.1856 40.364C16.4749 40.028 16.8156 39.7807 17.2076 39.622C17.5996 39.454 18.0196 39.37 18.4676 39.37C18.8129 39.37 19.1349 39.426 19.4336 39.538C19.7416 39.6407 20.0216 39.776 20.2736 39.944V36.5H21.6176V45.81C21.6176 45.9593 21.6502 46.062 21.7156 46.118C21.7902 46.1647 21.8789 46.188 21.9816 46.188C22.0562 46.188 22.1356 46.1787 22.2196 46.16C22.3036 46.132 22.3829 46.0993 22.4576 46.062L22.6816 46.93C22.5322 47.0047 22.3689 47.07 22.1916 47.126C22.0142 47.182 21.8182 47.21 21.6036 47.21C21.2862 47.21 21.0156 47.14 20.7916 47C20.5676 46.8507 20.4276 46.5753 20.3716 46.174C20.1009 46.454 19.7789 46.6967 19.4056 46.902C19.0322 47.1073 18.5936 47.21 18.0896 47.21ZM18.3836 46.118C18.7476 46.118 19.0836 46.0433 19.3916 45.894C19.7089 45.7447 20.0029 45.5487 20.2736 45.306V41.05C20.0589 40.8913 19.7976 40.756 19.4896 40.644C19.1909 40.5227 18.8689 40.462 18.5236 40.462C17.9729 40.462 17.5202 40.6953 17.1656 41.162C16.8202 41.6193 16.6476 42.3287 16.6476 43.29C16.6476 44.2513 16.8062 44.9653 17.1236 45.432C17.4502 45.8893 17.8702 46.118 18.3836 46.118ZM27.5516 46.118C28.0276 46.118 28.4383 46.0293 28.7836 45.852C29.1383 45.6653 29.4229 45.4693 29.6376 45.264L30.2396 45.992C29.9503 46.3187 29.5723 46.6033 29.1056 46.846C28.6389 47.0887 28.1069 47.21 27.5096 47.21C27.0149 47.21 26.5576 47.1307 26.1376 46.972C25.7176 46.804 25.3536 46.5567 25.0456 46.23C24.7469 45.894 24.5089 45.4833 24.3316 44.998C24.1636 44.5033 24.0796 43.934 24.0796 43.29C24.0796 42.646 24.1636 42.0813 24.3316 41.596C24.4996 41.1013 24.7329 40.6907 25.0316 40.364C25.3303 40.028 25.6803 39.7807 26.0816 39.622C26.4923 39.454 26.9356 39.37 27.4116 39.37C27.8503 39.37 28.2516 39.44 28.6156 39.58C28.9889 39.7107 29.3063 39.916 29.5676 40.196C29.8289 40.476 30.0296 40.826 30.1696 41.246C30.3189 41.6567 30.3936 42.142 30.3936 42.702V43.682H25.4936C25.5496 44.5127 25.7643 45.1287 26.1376 45.53C26.5203 45.922 26.9916 46.118 27.5516 46.118ZM27.4256 40.462C26.9216 40.462 26.4923 40.6487 26.1376 41.022C25.7923 41.386 25.5823 41.946 25.5076 42.702H29.0636C29.0636 41.9833 28.9189 41.4327 28.6296 41.05C28.3496 40.658 27.9483 40.462 27.4256 40.462ZM36.0051 47H34.2411L31.8611 39.58H33.2471L35.1931 45.754L37.1391 39.58H38.3851L36.0051 47Z" fill="black"/>
</svg>
